{
  "accessors": [
    {
      "bufferView": 2,
      "componentType": 5126,
      "count": 1631,
      "max": [
        1.8352489471435547,
        1.0633267164230347,
        5.3424224853515625
      ],
      "min": [
        -2.160724401473999,
        -0.9999996423721313,
        -4.095212936401367
      ],
      "type": "VEC3"
    },
    {
      "bufferView": 2,
      "byteOffset": 19572,
      "componentType": 5126,
      "count": 1631,
      "max": [
        0.9998412132263184,
        1.0,
        0.9999603033065796
      ],
      "min": [
        -0.9998412132263184,
        -0.9985920190811157,
        -0.999681830406189
      ],
      "type": "VEC3"
    },
    {
      "bufferView": 1,
      "componentType": 5126,
      "count": 1631,
      "max": [
        0.8750551342964172,
        0.9274044632911682
      ],
      "min": [
        0.12324875593185425,
        0.08624109625816345
      ],
      "type": "VEC2"
    },
    {
      "bufferView": 0,
      "componentType": 5125,
      "count": 5937,
      "type": "SCALAR"
    },
    {
      "bufferView": 2,
      "byteOffset": 39144,
      "componentType": 5126,
      "count": 682,
      "max": [
        1.86678946018219,
        1.0000004768371582,
        5.429647922515869
      ],
      "min": [
        -2.192507266998291,
        -0.9999995827674866,
        -4.161408424377441
      ],
      "type": "VEC3"
    },
    {
      "bufferView": 2,
      "byteOffset": 47328,
      "componentType": 5126,
      "count": 682,
      "max": [
        0.9989060759544373,
        0.9249664545059204,
        0.9911051392555237
      ],
      "min": [
        -0.9988889098167419,
        -0.9249664545059204,
        -0.9943041801452637
      ],
      "type": "VEC3"
    },
    {
      "bufferView": 1,
      "byteOffset": 13048,
      "componentType": 5126,
      "count": 682,
      "max": [
        0.8522721529006958,
        0.7261297702789307
      ],
      "min": [
        0.5528194308280945,
        0.26809147000312805
      ],
      "type": "VEC2"
    },
    {
      "bufferView": 0,
      "byteOffset": 23748,
      "componentType": 5125,
      "count": 2100,
      "type": "SCALAR"
    },
    {
      "bufferView": 2,
      "byteOffset": 55512,
      "componentType": 5126,
      "count": 2012,
      "max": [
        1.2500419616699219,
        -0.8121558427810669,
        2.937201738357544
      ],
      "min": [
        -1.6150338649749756,
        -0.9275739789009094,
        0.8559543490409851
      ],
      "type": "VEC3"
    },
    {
      "bufferView": 2,
      "byteOffset": 79656,
      "componentType": 5126,
      "count": 2012,
      "max": [
        0.9996823072433472,
        -0.017823129892349243,
        0.994114339351654
      ],
      "min": [
        -0.9885608553886414,
        -0.9998321533203125,
        -0.9984071254730225
      ],
      "type": "VEC3"
    },
    {
      "bufferView": 1,
      "byteOffset": 18504,
      "componentType": 5126,
      "count": 2012,
      "max": [
        0.4240613877773285,
        0.7098293304443359
      ],
      "min": [
        0.1710808128118515,
        0.5228789448738098
      ],
      "type": "VEC2"
    },
    {
      "bufferView": 0,
      "byteOffset": 32148,
      "componentType": 5125,
      "count": 11094,
      "type": "SCALAR"
    }
  ],
  "asset": {
    "extras": {
      "author": "KI NG (https://sketchfab.com/dadybandit)",
      "license": "CC-BY-4.0 (http://creativecommons.org/licenses/by/4.0/)",
      "source": "https://sketchfab.com/3d-models/old-nokia-phone-low-poly-a022864ae7b642a39469652c3eda2b9a",
      "title": "old nokia phone low poly"
    },
    "generator": "Sketchfab-12.66.0",
    "version": "2.0"
  },
  "bufferViews": [
    {
      "buffer": 0,
      "byteLength": 76524,
      "name": "floatBufferViews",
      "target": 34963
    },
    {
      "buffer": 0,
      "byteLength": 34600,
      "byteOffset": 76524,
      "byteStride": 8,
      "name": "floatBufferViews",
      "target": 34962
    },
    {
      "buffer": 0,
      "byteLength": 103800,
      "byteOffset": 111124,
      "byteStride": 12,
      "name": "floatBufferViews",
      "target": 34962
    }
  ],
  "buffers": [
    {
      "byteLength": 214924,
      "uri": "scene.bin"
    }
  ],
  "extensionsUsed": [
    "KHR_materials_clearcoat"
  ],
  "images": [
    {
      "uri": "textures/back_baseColor.jpeg"
    }
  ],
  "materials": [
    {
      "doubleSided": true,
      "name": "back",
      "pbrMetallicRoughness": {
        "baseColorTexture": {
          "index": 0
        },
        "metallicFactor": 0.0,
        "roughnessFactor": 0.8490566037735849
      }
    },
    {
      "doubleSided": true,
      "name": "side",
      "pbrMetallicRoughness": {
        "baseColorTexture": {
          "index": 0
        },
        "metallicFactor": 0.0,
        "roughnessFactor": 0.4088050314465409
      }
    },
    {
      "doubleSided": true,
      "emissiveFactor": [
        1.0,
        1.0,
        1.0
      ],
      "emissiveTexture": {
        "index": 0
      },
      "extensions": {
        "KHR_materials_clearcoat": {
          "clearcoatFactor": 1.0,
          "clearcoatRoughnessFactor": 0.04
        }
      },
      "name": "screen",
      "pbrMetallicRoughness": {
        "baseColorTexture": {
          "index": 0
        },
        "metallicFactor": 0.4716981132075472,
        "roughnessFactor": 0.0
      }
    }
  ],
  "meshes": [
    {
      "name": "Cube_back_0",
      "primitives": [
        {
          "attributes": {
            "NORMAL": 1,
            "POSITION": 0,
            "TEXCOORD_0": 2
          },
          "indices": 3,
          "material": 0,
          "mode": 4
        }
      ]
    },
    {
      "name": "Cube_side_0",
      "primitives": [
        {
          "attributes": {
            "NORMAL": 5,
            "POSITION": 4,
            "TEXCOORD_0": 6
          },
          "indices": 7,
          "material": 1,
          "mode": 4
        }
      ]
    },
    {
      "name": "Cube_screen_0",
      "primitives": [
        {
          "attributes": {
            "NORMAL": 9,
            "POSITION": 8,
            "TEXCOORD_0": 10
          },
          "indices": 11,
          "material": 2,
          "mode": 4
        }
      ]
    }
  ],
  "nodes": [
    {
      "children": [
        1
      ],
      "matrix": [
        1.0,
        0.0,
        0.0,
        0.0,
        0.0,
        2.220446049250313e-16,
        -1.0,
        0.0,
        0.0,
        1.0,
        2.220446049250313e-16,
        0.0,
        0.0,
        0.0,
        0.0,
        1.0
      ],
      "name": "Sketchfab_model"
    },
    {
      "children": [
        2
      ],
      "matrix": [
        1.0,
        0.0,
        0.0,
        0.0,
        0.0,
        0.0,
        1.0,
        0.0,
        0.0,
        -1.0,
        0.0,
        0.0,
        0.0,
        0.0,
        0.0,
        1.0
      ],
      "name": "bf24c89b95fc492f9ba5e652e15ec051.fbx"
    },
    {
      "children": [
        3
      ],
      "name": "RootNode"
    },
    {
      "children": [
        4,
        5,
        6
      ],
      "matrix": [
        44.74007034301758,
        0.0,
        0.0,
        0.0,
        -0.0,
        -3.561865969513239e-06,
        -21.862577438354204,
        0.0,
        0.0,
        44.74007034301699,
        -7.289082656322752e-06,
        0.0,
        -89.00847625732422,
        -25.511980056762695,
        -3.4277597933396464e-06,
        1.0
      ],
      "name": "Cube"
    },
    {
      "mesh": 0,
      "name": "Cube_back_0"
    },
    {
      "mesh": 1,
      "name": "Cube_side_0"
    },
    {
      "mesh": 2,
      "name": "Cube_screen_0"
    }
  ],
  "samplers": [
    {
      "magFilter": 9729,
      "minFilter": 9987,
      "wrapS": 10497,
      "wrapT": 10497
    }
  ],
  "scene": 0,
  "scenes": [
    {
      "name": "Sketchfab_Scene",
      "nodes": [
        0
      ]
    }
  ],
  "textures": [
    {
      "sampler": 0,
      "source": 0
    }
  ]
}
